<mxfile host="app.diagrams.net" modified="2022-07-15T16:42:29.331Z" agent="5.0 (Windows NT 10.0; Win64; x64) AppleWebKit/537.36 (KHTML, like Gecko) Chrome/103.0.0.0 Safari/537.36" etag="fDFi5erwPDG3dUm5-_Xo" version="20.1.1" type="github">
  <diagram name="Page-1" id="58cdce13-f638-feb5-8d6f-7d28b1aa9fa0">
    <mxGraphModel dx="822" dy="792" grid="1" gridSize="10" guides="1" tooltips="1" connect="1" arrows="1" fold="1" page="1" pageScale="1" pageWidth="1100" pageHeight="850" background="none" math="0" shadow="0">
      <root>
        <mxCell id="0" />
        <mxCell id="1" parent="0" />
        <mxCell id="PmqrdPCJsQn4eMu9PbWC-1" value="Waiting" style="swimlane;fontStyle=4;align=center;verticalAlign=top;childLayout=stackLayout;horizontal=1;startSize=40;horizontalStack=0;resizeParent=1;resizeParentMax=0;resizeLast=0;collapsible=0;marginBottom=0;html=1;rounded=1;absoluteArcSize=1;arcSize=50;" vertex="1" parent="1">
          <mxGeometry x="140" y="110" width="170" height="98" as="geometry" />
        </mxCell>
        <mxCell id="PmqrdPCJsQn4eMu9PbWC-5" value=" " style="fillColor=none;strokeColor=none;align=left;verticalAlign=middle;spacingLeft=5;" vertex="1" parent="PmqrdPCJsQn4eMu9PbWC-1">
          <mxGeometry y="40" width="170" height="25" as="geometry" />
        </mxCell>
        <mxCell id="PmqrdPCJsQn4eMu9PbWC-6" value="" style="line;strokeWidth=1;fillColor=none;align=left;verticalAlign=middle;spacingTop=-1;spacingLeft=3;spacingRight=3;rotatable=0;labelPosition=right;points=[];portConstraint=eastwest;" vertex="1" parent="PmqrdPCJsQn4eMu9PbWC-1">
          <mxGeometry y="65" width="170" height="8" as="geometry" />
        </mxCell>
        <mxCell id="PmqrdPCJsQn4eMu9PbWC-7" value="not in use, wait to be assiged" style="fillColor=none;strokeColor=none;align=left;verticalAlign=middle;spacingLeft=5;" vertex="1" parent="PmqrdPCJsQn4eMu9PbWC-1">
          <mxGeometry y="73" width="170" height="25" as="geometry" />
        </mxCell>
        <mxCell id="PmqrdPCJsQn4eMu9PbWC-8" value="" style="ellipse;fillColor=#000000;strokeColor=none;" vertex="1" parent="1">
          <mxGeometry x="80" y="135" width="30" height="30" as="geometry" />
        </mxCell>
        <mxCell id="PmqrdPCJsQn4eMu9PbWC-9" value="assigned" style="swimlane;fontStyle=4;align=center;verticalAlign=top;childLayout=stackLayout;horizontal=1;startSize=40;horizontalStack=0;resizeParent=1;resizeParentMax=0;resizeLast=0;collapsible=0;marginBottom=0;html=1;rounded=1;absoluteArcSize=1;arcSize=50;" vertex="1" parent="1">
          <mxGeometry x="460" y="113.5" width="140" height="98" as="geometry" />
        </mxCell>
        <mxCell id="PmqrdPCJsQn4eMu9PbWC-10" value=" " style="fillColor=none;strokeColor=none;align=left;verticalAlign=middle;spacingLeft=5;" vertex="1" parent="PmqrdPCJsQn4eMu9PbWC-9">
          <mxGeometry y="40" width="140" height="25" as="geometry" />
        </mxCell>
        <mxCell id="PmqrdPCJsQn4eMu9PbWC-11" value="" style="line;strokeWidth=1;fillColor=none;align=left;verticalAlign=middle;spacingTop=-1;spacingLeft=3;spacingRight=3;rotatable=0;labelPosition=right;points=[];portConstraint=eastwest;" vertex="1" parent="PmqrdPCJsQn4eMu9PbWC-9">
          <mxGeometry y="65" width="140" height="8" as="geometry" />
        </mxCell>
        <mxCell id="PmqrdPCJsQn4eMu9PbWC-12" value="waiting for take-off" style="fillColor=none;strokeColor=none;align=left;verticalAlign=middle;spacingLeft=5;" vertex="1" parent="PmqrdPCJsQn4eMu9PbWC-9">
          <mxGeometry y="73" width="140" height="25" as="geometry" />
        </mxCell>
        <mxCell id="PmqrdPCJsQn4eMu9PbWC-15" style="edgeStyle=orthogonalEdgeStyle;rounded=0;orthogonalLoop=1;jettySize=auto;html=1;exitX=1;exitY=0.5;exitDx=0;exitDy=0;entryX=0;entryY=0.5;entryDx=0;entryDy=0;" edge="1" parent="1" source="PmqrdPCJsQn4eMu9PbWC-5" target="PmqrdPCJsQn4eMu9PbWC-9">
          <mxGeometry relative="1" as="geometry" />
        </mxCell>
        <mxCell id="PmqrdPCJsQn4eMu9PbWC-16" value="chosen for flight" style="text;html=1;align=center;verticalAlign=middle;resizable=0;points=[];autosize=1;strokeColor=none;fillColor=none;" vertex="1" parent="1">
          <mxGeometry x="325" y="135" width="110" height="30" as="geometry" />
        </mxCell>
        <mxCell id="PmqrdPCJsQn4eMu9PbWC-17" value="en route" style="swimlane;fontStyle=4;align=center;verticalAlign=top;childLayout=stackLayout;horizontal=1;startSize=40;horizontalStack=0;resizeParent=1;resizeParentMax=0;resizeLast=0;collapsible=0;marginBottom=0;html=1;rounded=1;absoluteArcSize=1;arcSize=50;" vertex="1" parent="1">
          <mxGeometry x="600" y="310" width="140" height="98" as="geometry" />
        </mxCell>
        <mxCell id="PmqrdPCJsQn4eMu9PbWC-18" value=" " style="fillColor=none;strokeColor=none;align=left;verticalAlign=middle;spacingLeft=5;" vertex="1" parent="PmqrdPCJsQn4eMu9PbWC-17">
          <mxGeometry y="40" width="140" height="25" as="geometry" />
        </mxCell>
        <mxCell id="PmqrdPCJsQn4eMu9PbWC-19" value="" style="line;strokeWidth=1;fillColor=none;align=left;verticalAlign=middle;spacingTop=-1;spacingLeft=3;spacingRight=3;rotatable=0;labelPosition=right;points=[];portConstraint=eastwest;" vertex="1" parent="PmqrdPCJsQn4eMu9PbWC-17">
          <mxGeometry y="65" width="140" height="8" as="geometry" />
        </mxCell>
        <mxCell id="PmqrdPCJsQn4eMu9PbWC-20" value="fly" style="fillColor=none;strokeColor=none;align=center;verticalAlign=middle;spacingLeft=5;" vertex="1" parent="PmqrdPCJsQn4eMu9PbWC-17">
          <mxGeometry y="73" width="140" height="25" as="geometry" />
        </mxCell>
        <mxCell id="PmqrdPCJsQn4eMu9PbWC-21" style="edgeStyle=orthogonalEdgeStyle;rounded=0;orthogonalLoop=1;jettySize=auto;html=1;exitX=1;exitY=0.25;exitDx=0;exitDy=0;" edge="1" parent="1" source="PmqrdPCJsQn4eMu9PbWC-10" target="PmqrdPCJsQn4eMu9PbWC-17">
          <mxGeometry relative="1" as="geometry" />
        </mxCell>
        <mxCell id="PmqrdPCJsQn4eMu9PbWC-22" value="take-off/&lt;br&gt;fly" style="text;html=1;align=center;verticalAlign=middle;resizable=0;points=[];autosize=1;strokeColor=none;fillColor=none;" vertex="1" parent="1">
          <mxGeometry x="670" y="208" width="70" height="40" as="geometry" />
        </mxCell>
        <mxCell id="PmqrdPCJsQn4eMu9PbWC-37" style="edgeStyle=orthogonalEdgeStyle;rounded=0;orthogonalLoop=1;jettySize=auto;html=1;entryX=1;entryY=0.25;entryDx=0;entryDy=0;" edge="1" parent="1" source="PmqrdPCJsQn4eMu9PbWC-23" target="PmqrdPCJsQn4eMu9PbWC-30">
          <mxGeometry relative="1" as="geometry" />
        </mxCell>
        <mxCell id="PmqrdPCJsQn4eMu9PbWC-23" value="landing" style="swimlane;fontStyle=4;align=center;verticalAlign=top;childLayout=stackLayout;horizontal=1;startSize=40;horizontalStack=0;resizeParent=1;resizeParentMax=0;resizeLast=0;collapsible=0;marginBottom=0;html=1;rounded=1;absoluteArcSize=1;arcSize=50;" vertex="1" parent="1">
          <mxGeometry x="360" y="450" width="140" height="98" as="geometry" />
        </mxCell>
        <mxCell id="PmqrdPCJsQn4eMu9PbWC-24" value=" " style="fillColor=none;strokeColor=none;align=left;verticalAlign=middle;spacingLeft=5;" vertex="1" parent="PmqrdPCJsQn4eMu9PbWC-23">
          <mxGeometry y="40" width="140" height="25" as="geometry" />
        </mxCell>
        <mxCell id="PmqrdPCJsQn4eMu9PbWC-25" value="" style="line;strokeWidth=1;fillColor=none;align=left;verticalAlign=middle;spacingTop=-1;spacingLeft=3;spacingRight=3;rotatable=0;labelPosition=right;points=[];portConstraint=eastwest;" vertex="1" parent="PmqrdPCJsQn4eMu9PbWC-23">
          <mxGeometry y="65" width="140" height="8" as="geometry" />
        </mxCell>
        <mxCell id="PmqrdPCJsQn4eMu9PbWC-26" value="land" style="fillColor=none;strokeColor=none;align=center;verticalAlign=middle;spacingLeft=5;" vertex="1" parent="PmqrdPCJsQn4eMu9PbWC-23">
          <mxGeometry y="73" width="140" height="25" as="geometry" />
        </mxCell>
        <mxCell id="PmqrdPCJsQn4eMu9PbWC-27" style="edgeStyle=orthogonalEdgeStyle;rounded=0;orthogonalLoop=1;jettySize=auto;html=1;exitX=0.5;exitY=1;exitDx=0;exitDy=0;entryX=1;entryY=0.5;entryDx=0;entryDy=0;" edge="1" parent="1" source="PmqrdPCJsQn4eMu9PbWC-20" target="PmqrdPCJsQn4eMu9PbWC-23">
          <mxGeometry relative="1" as="geometry" />
        </mxCell>
        <mxCell id="PmqrdPCJsQn4eMu9PbWC-28" value="reach the destination" style="text;html=1;align=center;verticalAlign=middle;resizable=0;points=[];autosize=1;strokeColor=none;fillColor=none;" vertex="1" parent="1">
          <mxGeometry x="530" y="465" width="130" height="30" as="geometry" />
        </mxCell>
        <mxCell id="PmqrdPCJsQn4eMu9PbWC-42" style="edgeStyle=orthogonalEdgeStyle;rounded=0;orthogonalLoop=1;jettySize=auto;html=1;exitX=0.5;exitY=0;exitDx=0;exitDy=0;entryX=0.418;entryY=1;entryDx=0;entryDy=0;entryPerimeter=0;" edge="1" parent="1" source="PmqrdPCJsQn4eMu9PbWC-29" target="PmqrdPCJsQn4eMu9PbWC-7">
          <mxGeometry relative="1" as="geometry" />
        </mxCell>
        <mxCell id="PmqrdPCJsQn4eMu9PbWC-29" value="maintenance" style="swimlane;fontStyle=4;align=center;verticalAlign=top;childLayout=stackLayout;horizontal=1;startSize=40;horizontalStack=0;resizeParent=1;resizeParentMax=0;resizeLast=0;collapsible=0;marginBottom=0;html=1;rounded=1;absoluteArcSize=1;arcSize=50;" vertex="1" parent="1">
          <mxGeometry x="110" y="570" width="140" height="98" as="geometry" />
        </mxCell>
        <mxCell id="PmqrdPCJsQn4eMu9PbWC-30" value=" " style="fillColor=none;strokeColor=none;align=left;verticalAlign=middle;spacingLeft=5;" vertex="1" parent="PmqrdPCJsQn4eMu9PbWC-29">
          <mxGeometry y="40" width="140" height="25" as="geometry" />
        </mxCell>
        <mxCell id="PmqrdPCJsQn4eMu9PbWC-31" value="" style="line;strokeWidth=1;fillColor=none;align=left;verticalAlign=middle;spacingTop=-1;spacingLeft=3;spacingRight=3;rotatable=0;labelPosition=right;points=[];portConstraint=eastwest;" vertex="1" parent="PmqrdPCJsQn4eMu9PbWC-29">
          <mxGeometry y="65" width="140" height="8" as="geometry" />
        </mxCell>
        <mxCell id="PmqrdPCJsQn4eMu9PbWC-32" value="mechanc repaires" style="fillColor=none;strokeColor=none;align=center;verticalAlign=middle;spacingLeft=5;" vertex="1" parent="PmqrdPCJsQn4eMu9PbWC-29">
          <mxGeometry y="73" width="140" height="25" as="geometry" />
        </mxCell>
        <mxCell id="PmqrdPCJsQn4eMu9PbWC-34" value="check [maintenance required]" style="text;html=1;align=center;verticalAlign=middle;resizable=0;points=[];autosize=1;strokeColor=none;fillColor=none;" vertex="1" parent="1">
          <mxGeometry x="300" y="570" width="180" height="30" as="geometry" />
        </mxCell>
        <mxCell id="PmqrdPCJsQn4eMu9PbWC-35" style="edgeStyle=orthogonalEdgeStyle;rounded=0;orthogonalLoop=1;jettySize=auto;html=1;exitX=0;exitY=0;exitDx=0;exitDy=0;entryX=0.421;entryY=1.08;entryDx=0;entryDy=0;entryPerimeter=0;" edge="1" parent="1" source="PmqrdPCJsQn4eMu9PbWC-24" target="PmqrdPCJsQn4eMu9PbWC-7">
          <mxGeometry relative="1" as="geometry" />
        </mxCell>
        <mxCell id="PmqrdPCJsQn4eMu9PbWC-36" value="check [maintenace not required]" style="text;html=1;align=center;verticalAlign=middle;resizable=0;points=[];autosize=1;strokeColor=none;fillColor=none;" vertex="1" parent="1">
          <mxGeometry x="220" y="320" width="190" height="30" as="geometry" />
        </mxCell>
        <mxCell id="PmqrdPCJsQn4eMu9PbWC-38" value="" style="ellipse;html=1;shape=endState;fillColor=#000000;strokeColor=#000000;" vertex="1" parent="1">
          <mxGeometry x="165" y="780" width="30" height="30" as="geometry" />
        </mxCell>
        <mxCell id="PmqrdPCJsQn4eMu9PbWC-40" style="edgeStyle=orthogonalEdgeStyle;rounded=0;orthogonalLoop=1;jettySize=auto;html=1;exitX=0.5;exitY=1;exitDx=0;exitDy=0;" edge="1" parent="1" source="PmqrdPCJsQn4eMu9PbWC-32" target="PmqrdPCJsQn4eMu9PbWC-38">
          <mxGeometry relative="1" as="geometry" />
        </mxCell>
        <mxCell id="PmqrdPCJsQn4eMu9PbWC-41" value="cannot be repaired" style="text;html=1;align=center;verticalAlign=middle;resizable=0;points=[];autosize=1;strokeColor=none;fillColor=none;" vertex="1" parent="1">
          <mxGeometry x="180" y="715" width="120" height="30" as="geometry" />
        </mxCell>
        <mxCell id="PmqrdPCJsQn4eMu9PbWC-43" value="repaired" style="text;html=1;align=center;verticalAlign=middle;resizable=0;points=[];autosize=1;strokeColor=none;fillColor=none;" vertex="1" parent="1">
          <mxGeometry x="120" y="435" width="70" height="30" as="geometry" />
        </mxCell>
      </root>
    </mxGraphModel>
  </diagram>
</mxfile>
